<?xml version="1.0" encoding="utf-8"?>
<!-- Generator: Adobe Illustrator 18.0.0, SVG Export Plug-In . SVG Version: 6.00 Build 0)  -->
<!DOCTYPE svg PUBLIC "-//W3C//DTD SVG 1.1//EN" "http://www.w3.org/Graphics/SVG/1.1/DTD/svg11.dtd">
<svg version="1.1" id="Layer_1" xmlns="http://www.w3.org/2000/svg" xmlns:xlink="http://www.w3.org/1999/xlink" x="0px" y="0px"
	 viewBox="0 0 400 400" enable-background="new 0 0 400 400" xml:space="preserve">
<path d="M200,20.5c-55.9,0-101.3,45.3-101.3,101.3c0,1.2,0,2.4,0.1,3.7c0.4,10.6,2.4,20.9,5.8,30.4c21.6,71,95.4,163.7,95.4,163.7
	s73.8-92.6,95.4-163.7c3.4-9.6,5.4-19.8,5.8-30.4c0.1-1.2,0.1-2.4,0.1-3.7C301.3,65.8,255.9,20.5,200,20.5z M200,171.4
	c-27.4,0-49.6-22.2-49.6-49.6c0-27.4,22.2-49.6,49.6-49.6c27.4,0,49.6,22.2,49.6,49.6C249.6,149.2,227.4,171.4,200,171.4z"/>
<text transform="matrix(1 0 0 1 104.578 382.35)" font-family="'Futura-Medium'" font-size="64">10 KM</text>
</svg>
