<?xml version="1.0" encoding="utf-8"?>
<!-- Generator: Adobe Illustrator 18.0.0, SVG Export Plug-In . SVG Version: 6.00 Build 0)  -->
<!DOCTYPE svg PUBLIC "-//W3C//DTD SVG 1.1//EN" "http://www.w3.org/Graphics/SVG/1.1/DTD/svg11.dtd">
<svg version="1.1" id="Layer_1" xmlns="http://www.w3.org/2000/svg" xmlns:xlink="http://www.w3.org/1999/xlink" x="0px" y="0px"
	 viewBox="0 0 1000 1000" enable-background="new 0 0 1000 1000" xml:space="preserve">
<g>
	<path stroke="#FFFFFF" stroke-miterlimit="10" d="M597.7,298.3c11.7-11.9,17.5-26.4,17.5-43.4c0-17.3-5.8-31.7-17.3-43.4
		c-11.5-11.7-25.7-17.6-42.6-17.6c-16.9,0-31.1,5.9-42.7,17.6c-11.6,11.6-17.4,25.9-17.4,43c0,17.9,6,32.6,18.1,44.2
		c12,11.5,25.8,17.3,41.5,17.3C571.6,315.9,586,310.1,597.7,298.3z"/>
	<path stroke="#FFFFFF" stroke-miterlimit="10" d="M259.5,644.5c-12.4,4.9-18.6,18.8-13.7,31.2s18.8,18.6,31.2,13.7
		c12.3-4.8,18.6-18.8,13.7-31.2C285.8,645.8,271.9,639.6,259.5,644.5z"/>
	<path stroke="#FFFFFF" stroke-miterlimit="10" d="M296.1,561.2c-12.4,4.9-18.6,18.8-13.7,31.2s18.8,18.6,31.2,13.7
		c12.4-4.8,18.6-18.8,13.7-31.2C322.4,562.5,308.5,556.3,296.1,561.2z"/>
	<path stroke="#FFFFFF" stroke-miterlimit="10" d="M244,538.3c-4.9-12.4-18.8-18.6-31.2-13.7c-12.4,4.9-18.5,18.8-13.7,31.2
		c4.9,12.4,18.8,18.6,31.2,13.7C242.7,564.6,248.9,550.7,244,538.3z"/>
	<path stroke="#FFFFFF" stroke-miterlimit="10" d="M363.9,491.6c-4.9-12.4-18.8-18.6-31.2-13.7s-18.6,18.8-13.7,31.2
		s18.8,18.6,31.2,13.7C362.6,518.1,368.7,504.1,363.9,491.6z"/>
	<path stroke="#FFFFFF" stroke-miterlimit="10" d="M646.1,614.4c5.4-12.1-0.2-26.3-12.4-31.7c-12.1-5.4-26.3,0.2-31.7,12.4
		c-5.4,12.1,0.2,26.3,12.4,31.7S640.7,626.5,646.1,614.4z"/>
	<path stroke="#FFFFFF" stroke-miterlimit="10" d="M751.5,634.5c-12.1-5.4-26.3,0.2-31.7,12.4c-5.4,12.1,0.2,26.3,12.4,31.7
		c12.1,5.4,26.4-0.2,31.7-12.4C769.2,654.1,763.6,639.9,751.5,634.5z"/>
	<path stroke="#FFFFFF" stroke-miterlimit="10" d="M679.1,699.2c5.4-12.1-0.2-26.3-12.4-31.7c-12.1-5.4-26.3,0.2-31.7,12.4
		s0.2,26.3,12.4,31.7C659.5,717,673.7,711.4,679.1,699.2z"/>
	<path stroke="#FFFFFF" stroke-miterlimit="10" d="M500,60.7C257.4,60.7,60.7,257.4,60.7,500S257.4,939.3,500,939.3
		S939.3,742.6,939.3,500S742.6,60.7,500,60.7z M675,173.9h23.7v126H675V173.9z M676.6,314c2.9-2.9,6.3-4.3,10.3-4.3
		s7.4,1.4,10.3,4.3c2.9,2.9,4.3,6.3,4.3,10.3c0,4.1-1.4,7.5-4.3,10.4c-2.8,2.8-6.2,4.2-10.3,4.2c-4.1,0-7.6-1.4-10.4-4.2
		c-2.8-2.8-4.2-6.3-4.2-10.5C672.3,320.3,673.8,316.9,676.6,314z M314,195.4c16.4-16.4,36.5-24.7,60-24.7c12.7,0,24.5,2.6,35.5,7.7
		c10.5,5.2,20.8,13.5,31,25.1l-17.4,16.7c-13.3-17.7-29.5-26.6-48.6-26.6c-17.1,0-31.5,5.9-43.1,17.7
		c-11.6,11.6-17.4,26.2-17.4,43.7c0,18.1,6.5,32.9,19.4,44.6c12.1,10.8,25.2,16.3,39.4,16.3c12,0,22.8-4,32.4-12.1
		c9.6-8.2,14.9-17.9,16.1-29.3h-40.4v-23h67v5.4c0,12.2-1.4,23-4.3,32.3c-2.8,8.7-7.5,16.8-14.2,24.4c-15,16.9-34.2,25.4-57.4,25.4
		c-22.7,0-42.1-8.2-58.3-24.6c-16.2-16.4-24.3-36.2-24.3-59.2C289.3,231.7,297.6,211.8,314,195.4z M436.5,664.1L262.2,732
		c-15.1,5.9-32.1-1.6-37.9-16.6L156.5,541c-5.9-15.1,1.6-32.1,16.6-37.9l174.3-67.8c15.1-5.8,32.1,1.6,37.9,16.6l67.8,174.3
		C459.1,641.3,451.6,658.3,436.5,664.1z M497.9,317.2c-18.3-16-27.5-37-27.5-63c0-22.8,8.4-42.4,25.1-58.8
		c16.7-16.4,36.7-24.6,60-24.6c23.1,0,42.9,8.3,59.4,24.8c16.6,16.5,24.9,36.4,24.9,59.5c0,23.3-8.3,43.1-25,59.3
		c-16.7,16.3-36.9,24.5-60.6,24.5C533.4,338.9,514.6,331.7,497.9,317.2z M807,653.3l-75.3,171.2c-6.5,14.7-23.7,21.5-38.6,15
		L522,764.2c-14.7-6.5-21.5-23.7-15-38.6l75.3-171.2c6.5-14.7,23.7-21.5,38.6-15l171.2,75.3C806.9,621.3,813.6,638.5,807,653.3z"/>
	<path stroke="#FFFFFF" stroke-miterlimit="10" d="M379.4,597.8c-12.4,4.9-18.6,18.8-13.7,31.2c4.9,12.4,18.8,18.6,31.2,13.7
		c12.4-4.8,18.5-18.8,13.7-31.2C405.7,599.1,391.8,592.9,379.4,597.8z"/>
	<path stroke="#FFFFFF" stroke-miterlimit="10" d="M581.9,700.5c-12.1-5.4-26.3,0.2-31.7,12.4s0.2,26.3,12.4,31.7
		c12.1,5.4,26.3-0.2,31.7-12.4C599.6,720,594,705.8,581.9,700.5z"/>
	<path stroke="#FFFFFF" stroke-miterlimit="10" d="M699.7,752.3c-12.1-5.4-26.3,0.2-31.7,12.4c-5.4,12.1,0.2,26.3,12.4,31.7
		c12.2,5.4,26.4-0.2,31.7-12.4C717.4,771.8,711.8,757.6,699.7,752.3z"/>
</g>
</svg>
