<?xml version="1.0" encoding="utf-8"?>
<!-- Generator: Adobe Illustrator 18.0.0, SVG Export Plug-In . SVG Version: 6.00 Build 0)  -->
<!DOCTYPE svg PUBLIC "-//W3C//DTD SVG 1.1//EN" "http://www.w3.org/Graphics/SVG/1.1/DTD/svg11.dtd">
<svg version="1.1" id="Layer_1" xmlns="http://www.w3.org/2000/svg" xmlns:xlink="http://www.w3.org/1999/xlink" x="0px" y="0px"
	 viewBox="0 0 800 800" enable-background="new 0 0 800 800" xml:space="preserve">
<g>
	<g>
		<path d="M716.1,262.5c0-5-1.9-10-5.6-13.9c-13.4-13.2-21.9-18.6-29.7-23.4c-6.7-4.3-12.6-7.8-22.7-17.8c-10.2-10-13.8-16-18-22.7
			c-4.8-7.6-10.2-16.4-23.4-29.6c-7.6-7.6-19.9-7.4-27.3,0c-2.2,2.2-3.7,5-4.6,8c-13.6,12.6-23.4,16.5-34.6,20.8
			c-14.3,5.6-30.5,11.7-51.7,33.1c-21.4,21.4-27.5,37.6-32.9,51.9c-4.6,12.3-8.7,22.9-24.2,38.3c-15.4,15.6-26,19.5-38.3,24.4
			c-14.3,5.6-30.5,11.7-51.7,33.1c-21.2,21.4-27.5,37.6-32.9,51.9c-4.6,12.3-8.7,22.9-24.2,38.3c-15.4,15.6-26,19.5-38.3,24.4
			c-14.3,5.6-30.5,11.7-51.7,33.1c-7.6,7.6-7.4,19.9,0,27.3c1.3,1.3,2.6,2.2,4.1,3c9.3,10.2,12.6,16.2,16.5,22.9
			c4.5,7.8,9.5,16.7,22.3,30.7c12.8,13.9,21.4,19.7,28.8,24.7c6.7,4.5,12.3,8.4,22.1,19c3.7,4.1,9.1,6.3,14.3,6.3
			c4.6,0,9.5-1.7,13.2-5.2c2.8-2.4,4.5-5.6,5.4-8.9c13.8-13,23.6-16.9,34.9-21.2c14.3-5.6,30.5-11.7,51.7-33.1
			c21.2-21.4,27.5-37.6,32.9-51.9c4.6-12.3,8.7-22.9,24.2-38.3c15.4-15.6,26-19.7,38.3-24.4c14.3-5.6,30.5-11.7,51.7-33.1
			c21.2-21.4,27.5-37.6,32.9-51.9c4.6-12.3,8.7-22.9,24.2-38.3c15.4-15.6,26-19.5,38.3-24.4c14.3-5.6,30.5-11.7,51.7-33.1
			C717.1,277,718.5,269.2,716.1,262.5z M269.8,515.3c14.3-5.6,30.5-11.7,51.7-33.1c21.4-21.4,27.5-37.6,32.9-51.9
			c4.6-12.3,8.7-22.9,24.2-38.3c15.4-15.6,26-19.7,38.3-24.4c14.3-5.6,30.5-11.7,51.7-33.1c21.4-21.4,27.5-37.6,32.9-51.9
			c4.6-12.3,8.7-22.9,24.2-38.3c15.4-15.6,26-19.7,38.3-24.4c11.3-4.3,23.8-9.1,39-21.6c1.5,2.2,3,4.5,4.5,6.7
			c0.6,0.7,0.9,1.5,1.5,2.2c-9.9,7.1-18.2,10.4-26.8,13.8c-13.9,5.4-28.4,11-48.3,30.9c-19.9,19.9-25.3,34.4-30.7,48.5
			c-4.8,12.6-9.5,24.7-26.4,41.6s-29,21.6-41.6,26.6c-13.9,5.4-28.4,11-48.3,30.9c-19.9,19.9-25.3,34.4-30.7,48.5
			c-4.8,12.6-9.5,24.7-26.4,41.8c-16.9,16.9-29,21.6-41.6,26.6c-10.8,4.3-21.9,8.6-35.5,19.3c-1.7-2.6-3.7-5.6-6.3-8.6
			C254.3,521.3,261.8,518.5,269.8,515.3z M646,279.6c-14.3,5.6-30.5,11.7-51.7,33.1c-21.4,21.4-27.5,37.6-32.9,51.9
			c-4.6,12.3-8.7,22.9-24.2,38.3c-15.4,15.6-26,19.7-38.3,24.4c-14.3,5.6-30.5,11.7-51.7,33.1c-21.4,21.4-27.5,37.6-32.9,51.9
			c-4.6,12.3-8.7,22.9-24.2,38.3c-15.4,15.6-26,19.7-38.3,24.4c-11.9,4.6-25.1,9.7-41.5,23.6c-4.8-3.9-8.9-6.9-12.8-9.5
			c-6.7-4.5-12.3-8.4-22.1-19c-6.9-7.4-10.6-12.6-13.6-17.3c12.5-10.4,22.3-14.1,32.5-18.2c13.9-5.4,28.4-11,48.3-30.9
			c19.9-19.9,25.3-34.4,30.7-48.5c4.8-12.6,9.5-24.7,26.4-41.6s29-21.6,41.6-26.6c13.9-5.4,28.4-11,48.3-30.9
			c19.9-19.9,25.5-34.4,30.7-48.5c4.8-12.6,9.5-24.7,26.4-41.6s28.8-21.6,41.6-26.6c9.7-3.7,19.5-7.6,31.2-16.2
			c3,3.5,6.3,7.3,10.8,11.7c13.4,13.2,21.9,18.6,29.7,23.4c3.9,2.4,7.4,4.6,11.5,7.8C662.6,273.1,654.8,276.2,646,279.6z"/>
		<path d="M325.7,302.5c3.3-4.1,6.7-8,10-11.7c4.3-4.8,8.7-9.7,13.6-14.9c24.2-25.8,51.5-55,51.5-93.7c0-40.7-30.1-69.2-54.5-92
			c-4.1-3.9-8.2-7.6-11.9-11.3c-3.9-3.7-7.6-7.8-11.7-11.9c-22.9-24-51.3-53.9-92-53.9c-42.8,0-67.9,30.1-86.1,52.2
			c-2.6,3.2-5,6.1-7.6,9.1c-3.2,3.5-6.7,7.4-10.6,11.3c-19.5,20.6-43.7,46.1-43.7,85c0,13.9,5.2,27.3,10,39.2
			c3.7,9.5,7.6,19.3,7.3,26.2c-0.4,5.6-2,12.5-3.7,19.7c-4.6,19.7-11.2,46.8,10.2,65.1c9.5,8.2,21.6,9.1,30.9,9.1
			c4.3,0,8.7-0.2,13-0.6c4.3-0.2,8.2-0.4,11.9-0.4c5,0,8.7,0.4,11.2,1.3c5.2,1.7,12.3,8,18.4,13.6c10.8,9.7,23.1,20.6,38.7,20.6
			C273.5,364.4,302.5,330,325.7,302.5z M186.3,293.5c-6.7-2.2-14.1-3.3-23.6-3.3c-4.8,0-9.5,0.2-14.1,0.6c-3.9,0.2-7.6,0.4-10.8,0.4
			c-3.5,0-5.4-0.2-6.3-0.4c-2.4-3.9,0.6-16.7,2.8-26.2c2-8.6,4.1-17.3,4.6-26.2c0.9-15.4-4.8-29.9-9.9-42.8
			c-3.5-9.1-7.3-18.4-7.3-24.9c0-23.4,16.7-41.1,33.1-58.4c3.9-4.1,8-8.4,11.5-12.6c2.8-3.2,5.4-6.3,8.2-9.7
			c16.4-19.7,31.8-38.3,56.3-38.3c24,0,44.2,21.4,64,41.8c4.3,4.5,8.4,8.7,12.5,12.8c4.1,3.9,8.2,8,12.6,12.1
			c20.8,19.5,42.2,39.8,42.2,63.8c0,23.4-20.8,45.7-41.1,67.3c-4.8,5.2-9.9,10.4-14.3,15.6c-3.5,3.9-7.1,8.2-10.6,12.5
			c-19.7,23.4-40.2,47.6-64.3,48.1c-3-1.1-9.5-6.9-13.8-10.8C209,306.9,198.9,297.8,186.3,293.5z"/>
		<path d="M284.6,175.7c0-34.2-27.9-61.9-62.1-61.9s-61.9,27.9-61.9,61.9s27.9,61.9,61.9,61.9S284.6,209.9,284.6,175.7z
			 M222.5,198.9c-12.8,0-23.2-10.4-23.2-23.2s10.4-23.2,23.2-23.2s23.2,10.4,23.2,23.2S235.4,198.9,222.5,198.9z"/>
	</g>
</g>
<text transform="matrix(1 0 0 1 73.5449 764)" font-family="'Futura-Medium'" font-size="120">BREAKFAST</text>
</svg>
