<?xml version="1.0" encoding="utf-8"?>
<!-- Generator: Adobe Illustrator 18.0.0, SVG Export Plug-In . SVG Version: 6.00 Build 0)  -->
<!DOCTYPE svg PUBLIC "-//W3C//DTD SVG 1.1//EN" "http://www.w3.org/Graphics/SVG/1.1/DTD/svg11.dtd">
<svg version="1.1" id="Layer_1" xmlns="http://www.w3.org/2000/svg" xmlns:xlink="http://www.w3.org/1999/xlink" x="0px" y="0px"
	 viewBox="0 0 400 400" enable-background="new 0 0 400 400" xml:space="preserve">
<g>
	<g>
		<path d="M371.2,160.7c0-2.7-1-5.4-3-7.5c-7.2-7.1-11.8-10-16-12.6c-3.6-2.3-6.8-4.2-12.2-9.6c-5.5-5.4-7.4-8.6-9.7-12.2
			c-2.6-4.1-5.5-8.8-12.6-15.9c-4.1-4.1-10.7-4-14.7,0c-1.2,1.2-2,2.7-2.5,4.3c-7.3,6.8-12.6,8.9-18.6,11.2
			c-7.7,3-16.4,6.3-27.8,17.8c-11.5,11.5-14.8,20.2-17.7,27.9c-2.5,6.6-4.7,12.3-13,20.6c-8.3,8.4-14,10.5-20.6,13.1
			c-7.7,3-16.4,6.3-27.8,17.8c-11.4,11.5-14.8,20.2-17.7,27.9c-2.5,6.6-4.7,12.3-13,20.6c-8.3,8.4-14,10.5-20.6,13.1
			c-7.7,3-16.4,6.3-27.8,17.8c-4.1,4.1-4,10.7,0,14.7c0.7,0.7,1.4,1.2,2.2,1.6c5,5.5,6.8,8.7,8.9,12.3c2.4,4.2,5.1,9,12,16.5
			c6.9,7.5,11.5,10.6,15.5,13.3c3.6,2.4,6.6,4.5,11.9,10.2c2,2.2,4.9,3.4,7.7,3.4c2.5,0,5.1-0.9,7.1-2.8c1.5-1.3,2.4-3,2.9-4.8
			c7.4-7,12.7-9.1,18.8-11.4c7.7-3,16.4-6.3,27.8-17.8c11.4-11.5,14.8-20.2,17.7-27.9c2.5-6.6,4.7-12.3,13-20.6
			c8.3-8.4,14-10.6,20.6-13.1c7.7-3,16.4-6.3,27.8-17.8c11.4-11.5,14.8-20.2,17.7-27.9c2.5-6.6,4.7-12.3,13-20.6
			c8.3-8.4,14-10.5,20.6-13.1c7.7-3,16.4-6.3,27.8-17.8C371.7,168.5,372.5,164.3,371.2,160.7z M131.1,296.7
			c7.7-3,16.4-6.3,27.8-17.8c11.5-11.5,14.8-20.2,17.7-27.9c2.5-6.6,4.7-12.3,13-20.6c8.3-8.4,14-10.6,20.6-13.1
			c7.7-3,16.4-6.3,27.8-17.8c11.5-11.5,14.8-20.2,17.7-27.9c2.5-6.6,4.7-12.3,13-20.6c8.3-8.4,14-10.6,20.6-13.1
			c6.1-2.3,12.8-4.9,21-11.6c0.8,1.2,1.6,2.4,2.4,3.6c0.3,0.4,0.5,0.8,0.8,1.2c-5.3,3.8-9.8,5.6-14.4,7.4c-7.5,2.9-15.3,5.9-26,16.6
			c-10.7,10.7-13.6,18.5-16.5,26.1c-2.6,6.8-5.1,13.3-14.2,22.4c-9.1,9.1-15.6,11.6-22.4,14.3c-7.5,2.9-15.3,5.9-26,16.6
			c-10.7,10.7-13.6,18.5-16.5,26.1c-2.6,6.8-5.1,13.3-14.2,22.5c-9.1,9.1-15.6,11.6-22.4,14.3c-5.8,2.3-11.8,4.6-19.1,10.4
			c-0.9-1.4-2-3-3.4-4.6C122.8,299.9,126.8,298.4,131.1,296.7z M333.5,169.9c-7.7,3-16.4,6.3-27.8,17.8
			c-11.5,11.5-14.8,20.2-17.7,27.9c-2.5,6.6-4.7,12.3-13,20.6c-8.3,8.4-14,10.6-20.6,13.1c-7.7,3-16.4,6.3-27.8,17.8
			c-11.5,11.5-14.8,20.2-17.7,27.9c-2.5,6.6-4.7,12.3-13,20.6c-8.3,8.4-14,10.6-20.6,13.1c-6.4,2.5-13.5,5.2-22.3,12.7
			c-2.6-2.1-4.8-3.7-6.9-5.1c-3.6-2.4-6.6-4.5-11.9-10.2c-3.7-4-5.7-6.8-7.3-9.3c6.7-5.6,12-7.6,17.5-9.8c7.5-2.9,15.3-5.9,26-16.6
			c10.7-10.7,13.6-18.5,16.5-26.1c2.6-6.8,5.1-13.3,14.2-22.4c9.1-9.1,15.6-11.6,22.4-14.3c7.5-2.9,15.3-5.9,26-16.6
			c10.7-10.7,13.7-18.5,16.5-26.1c2.6-6.8,5.1-13.3,14.2-22.4c9.1-9.1,15.5-11.6,22.4-14.3c5.2-2,10.5-4.1,16.8-8.7
			c1.6,1.9,3.4,3.9,5.8,6.3c7.2,7.1,11.8,10,16,12.6c2.1,1.3,4,2.5,6.2,4.2C342.4,166.4,338.2,168.1,333.5,169.9z"/>
		<path d="M161.2,182.2c1.8-2.2,3.6-4.3,5.4-6.3c2.3-2.6,4.7-5.2,7.3-8c13-13.9,27.7-29.6,27.7-50.4c0-21.9-16.2-37.2-29.3-49.5
			c-2.2-2.1-4.4-4.1-6.4-6.1c-2.1-2-4.1-4.2-6.3-6.4c-12.3-12.9-27.6-29-49.5-29c-23,0-36.5,16.2-46.3,28.1
			c-1.4,1.7-2.7,3.3-4.1,4.9c-1.7,1.9-3.6,4-5.7,6.1c-10.5,11.1-23.5,24.8-23.5,45.7c0,7.5,2.8,14.7,5.4,21.1
			c2,5.1,4.1,10.4,3.9,14.1c-0.2,3-1.1,6.7-2,10.6c-2.5,10.6-6,25.2,5.5,35c5.1,4.4,11.6,4.9,16.6,4.9c2.3,0,4.7-0.1,7-0.3
			c2.3-0.1,4.4-0.2,6.4-0.2c2.7,0,4.7,0.2,6,0.7c2.8,0.9,6.6,4.3,9.9,7.3c5.8,5.2,12.4,11.1,20.8,11.1
			C133.1,215.5,148.7,197,161.2,182.2z M86.2,177.4c-3.6-1.2-7.6-1.8-12.7-1.8c-2.6,0-5.1,0.1-7.6,0.3c-2.1,0.1-4.1,0.2-5.8,0.2
			c-1.9,0-2.9-0.1-3.4-0.2c-1.3-2.1,0.3-9,1.5-14.1c1.1-4.6,2.2-9.3,2.5-14.1c0.5-8.3-2.6-16.1-5.3-23c-1.9-4.9-3.9-9.9-3.9-13.4
			c0-12.6,9-22.1,17.8-31.4c2.1-2.2,4.3-4.5,6.2-6.8c1.5-1.7,2.9-3.4,4.4-5.2c8.8-10.6,17.1-20.6,30.3-20.6
			c12.9,0,23.8,11.5,34.4,22.5c2.3,2.4,4.5,4.7,6.7,6.9c2.2,2.1,4.4,4.3,6.8,6.5c11.2,10.5,22.7,21.4,22.7,34.3
			c0,12.6-11.2,24.6-22.1,36.2c-2.6,2.8-5.3,5.6-7.7,8.4c-1.9,2.1-3.8,4.4-5.7,6.7c-10.6,12.6-21.6,25.6-34.6,25.9
			c-1.6-0.6-5.1-3.7-7.4-5.8C98.4,184.6,93,179.7,86.2,177.4z"/>
		<path d="M139.1,114c0-18.4-15-33.3-33.4-33.3s-33.3,15-33.3,33.3s15,33.3,33.3,33.3S139.1,132.4,139.1,114z M105.7,126.5
			c-6.9,0-12.5-5.6-12.5-12.5c0-6.9,5.6-12.5,12.5-12.5s12.5,5.6,12.5,12.5S112.6,126.5,105.7,126.5z"/>
	</g>
</g>
</svg>
