<?xml version="1.0" encoding="utf-8"?>
<!-- Generator: Adobe Illustrator 18.0.0, SVG Export Plug-In . SVG Version: 6.00 Build 0)  -->
<!DOCTYPE svg PUBLIC "-//W3C//DTD SVG 1.1//EN" "http://www.w3.org/Graphics/SVG/1.1/DTD/svg11.dtd">
<svg version="1.1" id="Layer_1" xmlns="http://www.w3.org/2000/svg" xmlns:xlink="http://www.w3.org/1999/xlink" x="0px" y="0px"
	 viewBox="0 0 800 800" enable-background="new 0 0 800 800" xml:space="preserve">
<g>
	<path d="M748.9,592.6c-108-186.9-216.4-374.2-324-561.5c-5.7-10.5-15.8-14.2-24.7-13.8c-9.3-0.8-18.6,3.6-25.1,13.8
		c-107.2,187.3-215.6,374.6-324,561.5c-10.5,18.6,2.8,42.9,24.7,42.9c216.4,0,432.1,0,648.5,0C746.1,636.3,759.4,612,748.9,592.6z
		 M400.2,102.3c91.8,159,183.7,317.2,274.7,476.2c-183.7,0-366.5,0-550.2,0C216.5,420.7,308.4,260.9,400.2,102.3z"/>
</g>
<text transform="matrix(1 0 0 1 90.6572 777.8984)" font-family="'Futura-Medium'" font-size="145.6401">MEDIUM</text>
<path d="M376.8,379.6L330.2,298c-21,11.5-39.1,29-51.5,51.5c-12.5,22.5-19,46.6-19,70.6h93.6C352.7,403.2,362.7,387.6,376.8,379.6z"
	/>
<path d="M447.8,420.2l92.6,1c0-24.1-6-48.5-19-70.6c-13.1-22-31-40-51-51.5l-47.1,80.6C437.7,388.1,447.8,403.2,447.8,420.2z"/>
<path d="M400.2,467.7c-8.5,0-16.5-2-23.5-6l-47.1,81.1c21,12,44.6,19,70.6,19c25.5,0,50.1-6.9,70.1-19l-46.6-81.1
	C416.3,465.2,408.7,467.7,400.2,467.7z"/>
<path d="M368.7,416.1c-3,21.6,15,39.1,36.1,36.1c13.5-2,24.1-12.5,26-26c3.5-21.6-14.5-39.5-35.6-36.1
	C382.3,392.1,371.3,403.2,368.7,416.1z"/>
</svg>
