<?xml version="1.0" encoding="utf-8"?>
<!-- Generator: Adobe Illustrator 18.0.0, SVG Export Plug-In . SVG Version: 6.00 Build 0)  -->
<!DOCTYPE svg PUBLIC "-//W3C//DTD SVG 1.1//EN" "http://www.w3.org/Graphics/SVG/1.1/DTD/svg11.dtd">
<svg version="1.1" id="Layer_1" xmlns="http://www.w3.org/2000/svg" xmlns:xlink="http://www.w3.org/1999/xlink" x="0px" y="0px"
	 viewBox="0 0 400 400" enable-background="new 0 0 400 400" xml:space="preserve">
<g>
	<path d="M371.4,332.5c-53.5-92.5-107-185.1-160.1-277.6c-2.8-5.3-7.7-7-12.3-6.7c-4.6-0.4-9.1,1.8-12.3,6.7
		C133.5,147.4,80,240,26.5,332.5c-5.3,9.1,1.4,21.1,12.3,21.1c107,0,213.6,0,320.6,0C370,354,376.6,342,371.4,332.5z M198.9,90.1
		c45.4,78.5,90.8,156.9,135.8,235.4c-90.8,0-181.2,0-272,0C108.2,247.4,153.6,168.5,198.9,90.1z"/>
</g>
<g>
	<path d="M199.2,177.1c-17.8,0-32.2,14.4-32.2,32.1c0,11.9,6.5,22.2,16.1,27.8v17.5h5v-12.3h4.2v12.3h4.9v-12.3h4.2v12.3h5v-12.3
		h4.2v12.3h4.7V237c9.6-5.6,16.1-15.9,16.1-27.8C231.3,191.5,216.9,177.1,199.2,177.1z M187.3,226c-4.4,0-8-3.6-8-8c0-4.4,3.6-8,8-8
		c4.4,0,8,3.6,8,8C195.3,222.4,191.7,226,187.3,226z M194.1,235.7l5.1-8.9l5.1,8.9H194.1z M211.2,226c-4.4,0-8-3.6-8-8
		c0-4.4,3.6-8,8-8s8,3.6,8,8C219.2,222.4,215.6,226,211.2,226z"/>
	<path d="M243.4,275.5c-0.8-0.3-1.7-0.5-2.6-0.5c-2.9,0-5.6,1.8-6.7,4.4l-0.2,0.5l-22-8.9l22-8.9l0.2,0.5c1.1,2.6,3.8,4.4,6.7,4.4
		c0.9,0,1.8-0.2,2.6-0.5c1.8-0.7,3.1-2.1,3.9-3.8c0.7-1.8,0.7-3.7,0-5.4c-0.7-1.7-2-3.1-3.7-3.8l-0.4-0.2l0.2-0.4
		c0.7-1.7,0.7-3.6,0-5.3c-1.1-2.6-3.8-4.4-6.7-4.4c-0.9,0-1.8,0.2-2.6,0.5c-3.6,1.5-5.4,5.7-3.9,9.3l0.2,0.5l-31.1,12.6l-31.1-12.6
		l0.2-0.5c1.5-3.6-0.3-7.8-3.9-9.3c-0.8-0.3-1.7-0.5-2.6-0.5c-2.9,0-5.6,1.8-6.7,4.4c-0.7,1.7-0.7,3.6,0,5.3l0.2,0.4l-0.4,0.2
		c-1.7,0.8-3,2.1-3.7,3.8c-0.7,1.8-0.7,3.7,0,5.4c0.7,1.8,2.1,3.1,3.9,3.8c0.8,0.3,1.7,0.5,2.6,0.5c2.9,0,5.6-1.8,6.7-4.4l0.2-0.5
		l22,8.9l-22,8.9l-0.2-0.5c-1.1-2.6-3.8-4.4-6.7-4.4c-0.9,0-1.8,0.2-2.6,0.5c-1.8,0.7-3.1,2.1-3.9,3.8c-0.7,1.8-0.7,3.7,0,5.4
		c0.7,1.7,2,3.1,3.7,3.8l0.4,0.2l-0.2,0.4c-0.7,1.7-0.7,3.6,0,5.3c1.1,2.6,3.8,4.4,6.7,4.4c0.9,0,1.8-0.2,2.6-0.5
		c3.6-1.5,5.4-5.7,3.9-9.3l-0.2-0.5l31.1-12.6l31.1,12.6l-0.2,0.5c-1.5,3.6,0.2,7.8,3.9,9.3c0.8,0.3,1.7,0.5,2.6,0.5c0,0,0,0,0,0
		c2.9,0,5.6-1.8,6.7-4.4c0.7-1.7,0.7-3.6,0-5.3l-0.2-0.4l0.4-0.2c1.7-0.7,3-2.1,3.7-3.8C248.7,281.1,247,277,243.4,275.5z"/>
</g>
</svg>
