<?xml version="1.0" encoding="utf-8"?>
<!-- Generator: Adobe Illustrator 18.0.0, SVG Export Plug-In . SVG Version: 6.00 Build 0)  -->
<!DOCTYPE svg PUBLIC "-//W3C//DTD SVG 1.1//EN" "http://www.w3.org/Graphics/SVG/1.1/DTD/svg11.dtd">
<svg version="1.1" id="Layer_1" xmlns="http://www.w3.org/2000/svg" xmlns:xlink="http://www.w3.org/1999/xlink" x="0px" y="0px"
	 viewBox="0 0 400 400" enable-background="new 0 0 400 400" xml:space="preserve">
<g>
	<path d="M371.4,332.5c-53.5-92.5-107-185.1-160.1-277.6c-2.8-5.3-7.7-7-12.3-6.7c-4.6-0.4-9.1,1.8-12.3,6.7
		C133.5,147.4,80,240,26.5,332.5c-5.3,9.1,1.4,21.1,12.3,21.1c107,0,213.6,0,320.6,0C370,354,376.6,342,371.4,332.5z M198.9,90.1
		c45.4,78.5,90.8,156.9,135.8,235.4c-90.8,0-181.2,0-272,0C108.2,247.4,153.6,168.5,198.9,90.1z"/>
</g>
<g>
</g>
<g>
	<g>
		<path d="M190.6,232.2l-18.7-32.5c-8.4,4.7-15.6,11.5-20.6,20.6c-5,9-7.5,18.7-7.5,28.1h37.4C180.9,241.5,185,235.3,190.6,232.2z"
			/>
		<path d="M219,248.4C219,248.7,219,248.7,219,248.4l37.1,0.3c0-9.7-2.5-19.3-7.5-28.1S236.1,204.7,228,200l-18.7,32.1
			C214.9,235.6,219,241.5,219,248.4z"/>
		<path d="M199.9,267.4c-3.4,0-6.6-0.9-9.4-2.5l-18.7,32.5c8.4,4.7,17.8,7.5,28.1,7.5c10.3,0,20-2.8,28.1-7.5l-18.7-32.5
			C206.5,266.5,203.4,267.4,199.9,267.4z"/>
	</g>
	<path d="M198,236.4c8.4-1.3,15.6,5.9,14.3,14.3c-0.8,5.3-5.1,9.6-10.4,10.4c-8.4,1.3-15.6-5.9-14.3-14.3
		C188.4,241.5,192.7,237.2,198,236.4z"/>
</g>
</svg>
