<?xml version="1.0" encoding="utf-8"?>
<!-- Generator: Adobe Illustrator 18.0.0, SVG Export Plug-In . SVG Version: 6.00 Build 0)  -->
<!DOCTYPE svg PUBLIC "-//W3C//DTD SVG 1.1//EN" "http://www.w3.org/Graphics/SVG/1.1/DTD/svg11.dtd">
<svg version="1.1" id="Layer_1" xmlns="http://www.w3.org/2000/svg" xmlns:xlink="http://www.w3.org/1999/xlink" x="0px" y="0px"
	 viewBox="0 0 800 800" enable-background="new 0 0 800 800" xml:space="preserve">
<g>
	<path d="M748.9,592.6c-108-186.9-216.4-374.2-324-561.5c-5.7-10.5-15.8-14.2-24.7-13.8c-9.3-0.8-18.6,3.6-25.1,13.8
		c-107.2,187.3-215.6,374.6-324,561.5c-10.5,18.6,2.8,42.9,24.7,42.9c216.4,0,432.1,0,648.5,0C746.1,636.3,759.4,612,748.9,592.6z
		 M400.2,102.3c91.8,159,183.7,317.2,274.7,476.2c-183.7,0-366.5,0-550.2,0C216.5,420.7,308.4,260.9,400.2,102.3z"/>
</g>
<text transform="matrix(1 0 0 1 82.5146 777.8984)" font-family="'Futura-Medium'" font-size="145.6401">EXTREME</text>
<g>
	<path d="M400.5,252.3c-43.2,0-78.2,35-78.2,78.2c0,28.7,15.5,53.9,38.9,67.5v42.8h12.1v-30.1h10.2v30.1h12.1v-30.1h10.2v30.1H418
		v-30.1h10.2v30.1h11.7v-42.8c23.3-13.6,39.4-38.4,39.4-67.5C478.2,287.3,443.7,252.3,400.5,252.3z M371.3,370.8
		c-10.7,0-19.4-8.7-19.4-19.4s8.7-19.4,19.4-19.4c10.7,0,19.4,8.7,19.4,19.4S382.5,370.8,371.3,370.8z M387.9,394.2l12.6-21.4
		l12.6,21.4H387.9z M429.6,370.8c-10.7,0-19.4-8.7-19.4-19.4s8.7-19.4,19.4-19.4c10.7,0,19.4,8.7,19.4,19.4S440.3,370.8,429.6,370.8
		z"/>
	<path d="M507.9,491.3c-1.9-0.5-4.4-1-6.3-1c-6.8,0-13.6,4.4-16.5,10.7l-0.5,1l-53.4-21.4l53.4-21.4l0.5,1
		c2.9,6.3,9.2,10.7,16.5,10.7c1.9,0,4.4-0.5,6.3-1c4.4-1.9,7.3-5.3,9.2-9.2c1.9-4.4,1.9-9.2,0-13.1c-1.9-3.9-4.9-7.8-9.2-9.2l-1-0.5
		l0.5-1c1.5-3.9,1.5-8.7,0-13.1c-2.9-6.3-9.2-10.7-16.5-10.7c-2.4,0-4.4,0.5-6.3,1c-8.7,3.9-13.1,13.6-9.2,22.8l0.5,1L400,468.5
		l-75.8-30.6l0.5-1c3.9-8.7-0.5-18.9-9.2-22.8c-1.9-1-4.4-1-6.3-1c-6.8,0-13.6,4.4-16.5,10.7c-1.5,3.9-1.5,8.7,0,13.1l0.5,1l-1,0.5
		c-4.4,1.9-7.3,5.3-9.2,9.2c-1.9,4.4-1.9,9.2,0,13.1c1.9,4.4,5.3,7.8,9.2,9.2c1.9,0.5,4.4,1,6.3,1c6.8,0,13.6-4.4,16.5-10.7l0.5-1
		l53.4,21.4L315.5,502l-0.5-1c-2.9-6.3-9.2-10.7-16.5-10.7c-1.9,0-4.4,0.5-6.3,1c-4.4,1.9-7.3,5.3-9.2,9.2c-1.9,4.4-1.9,9.2,0,13.1
		c1.9,4.4,4.9,7.8,9.2,9.2l1,0.5l-0.5,1c-1.5,4.4-1.5,8.7,0,12.6c2.9,6.3,9.2,10.7,16.5,10.7c2.4,0,4.4-0.5,6.3-1
		c8.7-3.9,13.1-14.1,9.2-22.4l-0.5-1l75.8-30.6l75.8,30.6l-0.5,1c-3.9,8.7,0.5,18.9,9.2,22.4c1.9,0.5,4.4,1,6.3,1l0,0
		c6.8,0,13.6-4.4,16.5-10.7c1.5-4.4,1.5-8.7,0-12.6l-0.5-1l1-0.5c4.4-1.9,7.3-5.3,9.2-9.2C521,505,516.6,494.7,507.9,491.3z"/>
</g>
</svg>
