<?xml version="1.0" encoding="utf-8"?>
<!-- Generator: Adobe Illustrator 18.0.0, SVG Export Plug-In . SVG Version: 6.00 Build 0)  -->
<!DOCTYPE svg PUBLIC "-//W3C//DTD SVG 1.1//EN" "http://www.w3.org/Graphics/SVG/1.1/DTD/svg11.dtd">
<svg version="1.1" id="Layer_1" xmlns="http://www.w3.org/2000/svg" xmlns:xlink="http://www.w3.org/1999/xlink" x="0px" y="0px"
	 viewBox="0 0 800 800" enable-background="new 0 0 800 800" xml:space="preserve">
<g>
	<path d="M748.9,592.6c-108-186.9-216.4-374.2-324-561.5c-5.7-10.5-15.8-14.2-24.7-13.8c-9.3-0.8-18.6,3.6-25.1,13.8
		c-107.2,187.3-215.6,374.6-324,561.5c-10.5,18.6,2.8,42.9,24.7,42.9c216.4,0,432.1,0,648.5,0C746.1,636.3,759.4,612,748.9,592.6z
		 M400.2,102.3c91.8,159,183.7,317.2,274.7,476.2c-183.7,0-366.5,0-550.2,0C216.5,420.7,308.4,260.9,400.2,102.3z"/>
</g>
<text transform="matrix(1 0 0 1 62.1406 777.8984)" font-family="'Futura-Medium'" font-size="145.6401">AVERAGE</text>
<text transform="matrix(1 0 0 1 334.9319 538.5362)" font-family="'Futura-Medium'" font-size="392.5175">!</text>
</svg>
