<?xml version="1.0" encoding="utf-8"?>
<!-- Generator: Adobe Illustrator 18.0.0, SVG Export Plug-In . SVG Version: 6.00 Build 0)  -->
<!DOCTYPE svg PUBLIC "-//W3C//DTD SVG 1.1//EN" "http://www.w3.org/Graphics/SVG/1.1/DTD/svg11.dtd">
<svg version="1.1" id="Layer_1" xmlns="http://www.w3.org/2000/svg" xmlns:xlink="http://www.w3.org/1999/xlink" x="0px" y="0px"
	 viewBox="0 0 400 400" enable-background="new 0 0 400 400" xml:space="preserve">
<g>
	<g>
		<path d="M363.6,189.3c-10.6-10.4-27.2-17.6-49.5-21.4c-1.8-0.4-3.6-0.7-5.6-0.9c-3.2-0.4-6.5-0.8-10-1.1
			c-24.4-3.2-29.5-8-34.9-15.5c-8.6-15.2-25.4-26.7-50.1-34.1c-19.2-5.8-43.3-9-67.8-9h0c-57.3,0-124.1,17.5-124.1,66.7V205
			c0,16.5,8.5,46.3,65.2,60.1c34.3,9.1,123.3,26.1,127.1,26.8v0l0.4,0.1c0.1,0,0.2,0,0.3,0c33.1,5.5,61.1,8.3,83,8.3
			c20.5,0,36.5-2.4,48.7-7.3c19.6-7.9,30.8-23.2,30.8-42.2v-30.9C377,211.9,374.7,200.1,363.6,189.3z M361.8,250.9
			c0,8.9-3.7,21-21.3,28.1c-10.4,4.2-24.4,6.2-43,6.2c-21.1,0-48.2-2.7-80.5-8.1c-0.1,0-0.2,0-0.3-0.1
			c-9.5-1.8-93.4-17.9-126.1-26.6c0,0,0,0,0,0C55.9,242,36.8,225.9,36.8,205v-30.9c0-35.6,54.7-51.5,109-51.5h0
			c23.1,0,45.6,3,63.5,8.3c21.1,6.4,35.1,15.7,41.6,27.7c8.7,12.4,17.9,18.9,46.1,22.5c3.4,0.3,6.7,0.6,9.8,1.1
			c1.6,0.2,3.1,0.4,4.5,0.7c44,7.3,50.5,26.4,50.5,37.1C361.8,219.9,361.8,250.9,361.8,250.9z"/>
		<g>
			<path d="M303.8,193.3c-1-0.2-2.2-0.4-3.6-0.6c-3-0.4-6.1-0.7-9.3-1c-30.2-3.9-40.9-11.7-50.5-25.6l0,0
				c-22.3-43.8-188.9-40.4-188.9,10.1c0,17.1,19,28.8,45.1,35.1h0c32.4,8.6,120.1,25.3,120.1,25.4c62.6,10.4,128.5,14.5,128.5-16.4
				C345.3,206.1,327,197.1,303.8,193.3z M229.2,206.5c-1.2,2.9-4,4.7-7,4.7c-0.9,0-1.9-0.2-2.8-0.5l-48-19.1
				c-26.9-8.7-52.3-12-85.1-6.8c-4.1,0.7-8-2.1-8.7-6.2c-0.7-4.1,2.1-8,6.2-8.7l38.9-6.8l55.6-10.9c3.4-0.7,6.8,1.1,8.3,4.2
				c1.5,3.1,0.7,6.9-2,9.1c-2.6,2.2-6,6.7-5.6,9.3c0.2,1.3,1.7,2.8,4.2,4.3c1.6,0.8,3.4,1.6,5.3,2.4c0,0,0,0,0.1,0
				c11.6,4.3,23.7,9.5,36.8,15.3C229.1,198.2,230.8,202.6,229.2,206.5z"/>
		</g>
	</g>
</g>
</svg>
