<?xml version="1.0" encoding="utf-8"?>
<!-- Generator: Adobe Illustrator 18.0.0, SVG Export Plug-In . SVG Version: 6.00 Build 0)  -->
<!DOCTYPE svg PUBLIC "-//W3C//DTD SVG 1.1//EN" "http://www.w3.org/Graphics/SVG/1.1/DTD/svg11.dtd">
<svg version="1.1" id="Layer_1" xmlns="http://www.w3.org/2000/svg" xmlns:xlink="http://www.w3.org/1999/xlink" x="0px" y="0px"
	 viewBox="0 0 800 800" enable-background="new 0 0 800 800" xml:space="preserve">
<g>
	<g>
		<path d="M727.2,378.6c-21.2-20.8-54.4-35.2-99-42.8c-3.6-0.8-7.2-1.4-11.2-1.8c-6.4-0.8-13-1.6-20-2.2c-48.8-6.4-59-16-69.8-31
			c-17.2-30.4-50.8-53.4-100.2-68.2c-38.4-11.6-86.6-18-135.6-18l0,0c-114.6,0-248.2,35-248.2,133.4v62c0,33,17,92.6,130.4,120.2
			c68.6,18.2,246.6,52.2,254.2,53.6l0,0l0.8,0.2c0.2,0,0.4,0,0.6,0c66.2,11,122.2,16.6,166,16.6c41,0,73-4.8,97.4-14.6
			c39.2-15.8,61.6-46.4,61.6-84.4v-61.8C754,423.8,749.4,400.2,727.2,378.6z M723.6,501.8c0,17.8-7.4,42-42.6,56.2
			c-20.8,8.4-48.8,12.4-86,12.4c-42.2,0-96.4-5.4-161-16.2c-0.2,0-0.4,0-0.6-0.2c-19-3.6-186.8-35.8-252.2-53.2l0,0
			C111.8,484,73.6,451.8,73.6,410v-61.8c0-71.2,109.4-103,218-103l0,0c46.2,0,91.2,6,127,16.6c42.2,12.8,70.2,31.4,83.2,55.4
			c17.4,24.8,35.8,37.8,92.2,45c6.8,0.6,13.4,1.2,19.6,2.2c3.2,0.4,6.2,0.8,9,1.4c88,14.6,101,52.8,101,74.2
			C723.6,439.8,723.6,501.8,723.6,501.8z"/>
		<g>
			<path d="M607.6,386.6c-2-0.4-4.4-0.8-7.2-1.2c-6-0.8-12.2-1.4-18.6-2c-60.4-7.8-81.8-23.4-101-51.2l0,0
				C436.2,244.6,103,251.4,103,352.4c0,34.2,38,57.6,90.2,70.2l0,0c64.8,17.2,240.2,50.6,240.2,50.8c125.2,20.8,257,29,257-32.8
				C690.6,412.2,654,394.2,607.6,386.6z M458.4,413c-2.4,5.8-8,9.4-14,9.4c-1.8,0-3.8-0.4-5.6-1l-96-38.2
				c-53.8-17.4-104.6-24-170.2-13.6c-8.2,1.4-16-4.2-17.4-12.4c-1.4-8.2,4.2-16,12.4-17.4l77.8-13.6l111.2-21.8
				c6.8-1.4,13.6,2.2,16.6,8.4c3,6.2,1.4,13.8-4,18.2c-5.2,4.4-12,13.4-11.2,18.6c0.4,2.6,3.4,5.6,8.4,8.6c3.2,1.6,6.8,3.2,10.6,4.8
				c0,0,0,0,0.2,0c23.2,8.6,47.4,19,73.6,30.6C458.2,396.4,461.6,405.2,458.4,413z"/>
		</g>
	</g>
</g>
<text transform="matrix(1 0 0 1 167.3828 763)" font-family="'Futura-Medium'" font-size="120">DINNER</text>
</svg>
