<?xml version="1.0" encoding="utf-8"?>
<!-- Generator: Adobe Illustrator 18.0.0, SVG Export Plug-In . SVG Version: 6.00 Build 0)  -->
<!DOCTYPE svg PUBLIC "-//W3C//DTD SVG 1.1//EN" "http://www.w3.org/Graphics/SVG/1.1/DTD/svg11.dtd">
<svg version="1.1" id="Layer_1" xmlns="http://www.w3.org/2000/svg" xmlns:xlink="http://www.w3.org/1999/xlink" x="0px" y="0px"
	 viewBox="0 0 400 400" enable-background="new 0 0 400 400" xml:space="preserve">
<g>
	<g>
		<g>
			<path d="M307.1,170.7h-15.8c-3.3,0-6.4,0.3-9.5,0.9V136c0-1.9-0.2-3.8-0.6-5.7c10.4-7.7,17.1-19.9,17.1-33.7
				c0-25.8-23.7-46.5-49.9-41.3c-8.7-9.1-21-14.2-33.7-13.6c-8.1-11.7-21.6-19-35.9-19c-11.7,0-22.7,4.6-30.8,12.7
				c-2.2-0.9-4.4-1.6-6.6-2.1l-2.8-0.6c-2.2-0.3-4.4-0.5-6.6-0.6c-3.3-0.3-6.4-0.2-9.5,0h-0.8v0.1C103,34.2,87.4,45.2,81.3,60.6
				C63,64,49.2,80.1,49.2,99.3c0,13.4,6.7,25.2,17,32.4c-0.2,1.4-0.4,2.9-0.4,4.4V349c0,15.7,12.7,28.4,28.4,28.4h159.3
				c15.7,0,28.4-12.7,28.4-28.4v-43.5c3.1,0.6,6.2,0.9,9.5,0.9h15.8c28.7,0,52.1-23.4,52.1-52.1v-31.5
				C359.1,194.1,335.8,170.7,307.1,170.7z M262.9,349c0,5.2-4.2,9.5-9.5,9.5H94.1c-5.2,0-9.5-4.2-9.5-9.5V136c0-5.2,4.2-9.5,9.5-9.5
				h159.3c5.2,0,9.5,4.2,9.5,9.5C262.9,136,262.9,349,262.9,349z M271.3,114.2L271.3,114.2c-4.9-4-11.1-6.5-17.9-6.5H94.1
				c-7.2,0-13.7,2.8-18.7,7.2c-4.4-3.8-7.3-9.3-7.3-15.5c0-11.3,9.2-20.4,20.4-20.5l7.8,0l1.5-7.6c1.8-8.9,11-18.3,25.1-19.9h10.4
				c4.2,0.3,8.3,1.7,11.9,4l7.8,5.2l5.2-7.8c4.6-6.9,12.3-11,20.6-11c9.6,0,18.2,5.4,22.4,14.2l3.2,6.7l7.3-1.5
				c9.9-2,20,2.1,25.6,10.3l4.1,6.1l6.9-2.5c2.8-1,5.4-1.5,8-1.5c12.8,0,23.1,10.4,23.1,23.1C279.5,103.7,276.2,109.9,271.3,114.2z
				 M330.7,254.3c0,13-10.6,23.7-23.7,23.7h-15.8c-3.4,0-6.6-0.7-9.5-2v-74.8c2.9-1.3,6.1-2,9.5-2h15.8c13,0,23.7,10.6,23.7,23.7
				V254.3z"/>
			<rect x="94.1" y="161.3" width="159.3" height="187.7"/>
		</g>
	</g>
	<g>
	</g>
	<g>
	</g>
	<g>
	</g>
	<g>
	</g>
	<g>
	</g>
	<g>
	</g>
	<g>
	</g>
	<g>
	</g>
	<g>
	</g>
	<g>
	</g>
	<g>
	</g>
	<g>
	</g>
	<g>
	</g>
	<g>
	</g>
	<g>
	</g>
</g>
</svg>
