<?xml version="1.0" encoding="utf-8"?>
<!-- Generator: Adobe Illustrator 16.0.0, SVG Export Plug-In . SVG Version: 6.00 Build 0)  -->
<!DOCTYPE svg PUBLIC "-//W3C//DTD SVG 1.1//EN" "http://www.w3.org/Graphics/SVG/1.1/DTD/svg11.dtd">
<svg version="1.1" id="Layer_1" xmlns="http://www.w3.org/2000/svg" xmlns:xlink="http://www.w3.org/1999/xlink" x="0px" y="0px"
	 width="800px" height="800px" viewBox="0 0 800 800" enable-background="new 0 0 800 800" xml:space="preserve">
<g>
	<g>
		<g>
			<path d="M625.649,278.7H597.75c-5.8,0-11.3,0.5-16.8,1.6v-62.9c0-3.4-0.4-6.7-1.101-10.1c18.4-13.6,30.2-35.1,30.2-59.5
				c0-45.6-41.9-82.1-88.1-72.9c-15.4-16.1-37.101-25.1-59.5-24c-14.301-20.7-38.101-33.6-63.4-33.6c-20.7,0-40.1,8.1-54.399,22.4
				c-3.9-1.6-7.801-2.8-11.7-3.7l-4.9-1.1c-3.899-0.5-7.8-0.9-11.7-1.1c-5.8-0.5-11.3-0.4-16.8,0h-1.399V34
				c-33,3.5-60.601,23-71.301,50.1c-32.3,6-56.699,34.4-56.699,68.3c0,23.7,11.8,44.5,30,57.2c-0.4,2.5-0.7,5.1-0.7,7.8v375.9
				c0,27.7,22.399,50.101,50.1,50.101h281.5c27.7,0,50.1-22.4,50.1-50.101v-76.8c5.5,1.1,10.9,1.6,16.801,1.6h27.899
				c50.7,0,92-41.3,92-92v-55.6C717.45,320.1,676.35,278.7,625.649,278.7z M547.649,593.6c0,9.2-7.399,16.801-16.8,16.801h-281.3
				c-9.2,0-16.8-7.4-16.8-16.801V217.5c0-9.2,7.4-16.8,16.8-16.8h281.3c9.2,0,16.8,7.4,16.8,16.8V593.6z M562.45,179L562.45,179
				c-8.7-7.1-19.601-11.5-31.601-11.5h-281.3c-12.7,0-24.2,4.9-33,12.7c-7.8-6.7-12.899-16.4-12.899-27.4c0-20,16.199-36,36-36.2
				h13.8l2.6-13.4c3.2-15.7,19.4-32.3,44.3-35.1h18.4c7.4,0.5,14.7,3,21,7.1l13.8,9.2l9.2-13.8c8.1-12.2,21.7-19.4,36.399-19.4
				c17,0,32.101,9.5,39.601,25.1l5.7,11.8l12.899-2.6c17.5-3.5,35.3,3.7,45.2,18.2l7.2,10.8l12.2-4.4c4.899-1.8,9.5-2.6,14.1-2.6
				c22.6,0,40.8,18.4,40.8,40.8C576.95,160.4,571.149,171.4,562.45,179z M667.35,426.4c0,23-18.7,41.899-41.899,41.899h-27.9
				c-6,0-11.7-1.2-16.8-3.5V332.6c5.1-2.3,10.8-3.5,16.8-3.5h27.9c23,0,41.899,18.7,41.899,41.9V426.4z"/>
			<rect x="249.55" y="262.1" width="281.3" height="331.4"/>
		</g>
	</g>
</g>
<text transform="matrix(1 0 0 1 178.8965 763)" font-family="'Futura-Medium'" font-size="120">DRINKS</text>
</svg>
