<?xml version="1.0" encoding="iso-8859-1"?>
<!-- Generator: Adobe Illustrator 16.0.0, SVG Export Plug-In . SVG Version: 6.00 Build 0)  -->
<!DOCTYPE svg PUBLIC "-//W3C//DTD SVG 1.1//EN" "http://www.w3.org/Graphics/SVG/1.1/DTD/svg11.dtd">
<svg version="1.1" id="Capa_1" xmlns="http://www.w3.org/2000/svg" xmlns:xlink="http://www.w3.org/1999/xlink" x="0px" y="0px"
	 width="64.769px" height="64.769px" viewBox="0 0 64.769 64.769" style="enable-background:new 0 0 64.769 64.769;"
	 xml:space="preserve">
<g>
	<path d="M62.431,36.583h-2.595v-2.226h1.408c1.291,0,2.338-1.047,2.338-2.336c0-13.568-13.734-24.605-30.614-24.605
		c-16.009,0-29.187,9.927-30.507,22.522c-0.756,0.388-1.274,1.175-1.274,2.083c0,1.29,1.046,2.336,2.337,2.336h1.409v2.226H2.338
		C1.047,36.583,0,37.629,0,38.919v6.105c0,1.289,1.047,2.336,2.338,2.336h0.098v7.656c0,1.289,1.045,2.336,2.336,2.336h55.224
		c1.291,0,2.338-1.047,2.338-2.336v-7.656h0.098c1.291,0,2.337-1.047,2.337-2.336v-6.105C64.768,37.629,63.722,36.583,62.431,36.583
		z M32.968,12.09c13.274,0,24.252,7.7,25.763,17.594h-1.231H7.27H7.204C8.715,19.791,19.694,12.09,32.968,12.09z M9.608,34.357
		h45.554v2.226H9.608V34.357z M4.675,41.257H7.27h50.229h2.596v1.43h-0.099H4.772H4.675V41.257z M57.658,52.679H7.109v-5.316h50.549
		V52.679z"/>
</g>
<g>
</g>
<g>
</g>
<g>
</g>
<g>
</g>
<g>
</g>
<g>
</g>
<g>
</g>
<g>
</g>
<g>
</g>
<g>
</g>
<g>
</g>
<g>
</g>
<g>
</g>
<g>
</g>
<g>
</g>
</svg>
