<?xml version="1.0" encoding="utf-8"?>
<!-- Generator: Adobe Illustrator 18.0.0, SVG Export Plug-In . SVG Version: 6.00 Build 0)  -->
<!DOCTYPE svg PUBLIC "-//W3C//DTD SVG 1.1//EN" "http://www.w3.org/Graphics/SVG/1.1/DTD/svg11.dtd">
<svg version="1.1" id="Layer_1" xmlns="http://www.w3.org/2000/svg" xmlns:xlink="http://www.w3.org/1999/xlink" x="0px" y="0px"
	 viewBox="0 0 400 400" enable-background="new 0 0 400 400" xml:space="preserve">
<g id="fastfood3.psd_1_">
	<g id="Forma_1_2_">
		<g>
			<path fill-rule="evenodd" clip-rule="evenodd" d="M376.7,222.2c-2.1-1.5-4.7-2.4-7.5-2.4h-14.5v-12.4h7.8c7.2,0,13-5.8,13-13
				c0-75.4-76.5-136.8-170.6-136.8c-89.2,0-162.7,55.2-170,125.2c-4.2,2.2-7.1,6.5-7.1,11.6c0,7.2,5.8,13,13,13h7.9v12.4H34.3
				c-7.2,0-13,5.8-13,13v33.9c0,7.2,5.8,13,13,13h0.5v42.6c0,7.2,5.8,13,13,13h307.8c7.2,0,13-5.8,13-13v-42.6h0.5
				c2.8,0,5.4-0.9,7.5-2.4V222.2z M205,83.6c74,0,135.2,42.8,143.6,97.8H61.5C69.9,126.4,131.1,83.6,205,83.6z M328.7,207.4v12.4
				H74.9v-12.4H328.7z M342.6,309.3H60.9v-29.6h281.7V309.3z M356.2,253.7H47.4v-8h308.9V253.7z"/>
		</g>
	</g>
</g>
</svg>
