<?xml version="1.0" encoding="utf-8"?>
<!-- Generator: Adobe Illustrator 18.0.0, SVG Export Plug-In . SVG Version: 6.00 Build 0)  -->
<!DOCTYPE svg PUBLIC "-//W3C//DTD SVG 1.1//EN" "http://www.w3.org/Graphics/SVG/1.1/DTD/svg11.dtd">
<svg version="1.1" id="Layer_1" xmlns="http://www.w3.org/2000/svg" xmlns:xlink="http://www.w3.org/1999/xlink" x="0px" y="0px"
	 viewBox="0 0 800 800" enable-background="new 0 0 800 800" xml:space="preserve">
<g id="fastfood3.psd_1_">
	<g id="Forma_1_2_">
		<g>
			<path d="M724.7,375.9c-3.8-2.7-8.6-4.4-13.7-4.4h-26.5v-22.7h14.3c13.2,0,23.8-10.6,23.8-23.8c0-137.8-139.8-250-311.7-250
				c-163,0-297.3,100.9-310.6,228.8c-7.7,4-13,11.9-13,21.2c0,13.2,10.6,23.8,23.8,23.8h14.4v22.7H99.1c-13.2,0-23.8,10.6-23.8,23.8
				v61.9c0,13.2,10.6,23.8,23.8,23.8h0.9v77.8c0,13.2,10.6,23.8,23.8,23.8h562.4c13.2,0,23.8-10.6,23.8-23.8V481h0.9
				c5.1,0,9.9-1.6,13.7-4.4V375.9H724.7z M411,122.7c135.2,0,247,78.2,262.4,178.7H148.8C164.1,200.9,275.9,122.7,411,122.7z
				 M637,348.9v22.7H173.3v-22.7H637z M662.4,535.1H147.7V481h514.7V535.1z M687.2,433.5H123v-14.6h564.4v14.6H687.2z"/>
		</g>
	</g>
</g>
<text transform="matrix(1 0 0 1 192.0801 763)" font-family="'Futura-Medium'" font-size="120">LUNCH</text>
</svg>
